# xmcd CD database file
#
# Track frame offsets:
#	150
#	1815
#	44200
#	96695
#	141547
#	179075
#
# Disc length: 2613 seconds
#
# Revision: 3
# Processed by: cddbd v1.5.1PL0 Copyright (c) Steve Scherf et al.
# Submitted via: CDex 1.51
#
DISCID=5e0a3306
DTITLE=Kenny Burrell - On View At The Five Spot Cafe
DYEAR=1959
DGENRE=Jazz
TTITLE0=Introduction By Kenny Burrell
TTITLE1=Birk's Works
TTITLE2=Hallelujah
TTITLE3=Lady Be Good
TTITLE4=Lover Man
TTITLE5=36-23-36
EXTD=Blue Note ST-84021 YEAR: 1959
EXTT0=
EXTT1=
EXTT2=
EXTT3=
EXTT4=
EXTT5=
PLAYORDER=
